<?xml version="1.0" encoding="UTF-8" standalone="no"?>
<svg xmlns="http://www.w3.org/2000/svg" xmlns:xlink="http://www.w3.org/1999/xlink" xml:space="preserve" width="40" height="40" version="1.0" viewBox="0 0 144 144">
  <defs>
    <linearGradient id="b">
      <stop offset="0" stop-color="#ce9036"/>
      <stop offset=".5" stop-color="#ffdb83"/>
      <stop offset="1" stop-color="#cc9442"/>
    </linearGradient>
    <linearGradient id="a">
      <stop offset="0" stop-color="#636363"/>
      <stop offset=".5" stop-color="#fff"/>
      <stop offset="1" stop-color="#5d5d5d"/>
    </linearGradient>
    <linearGradient xlink:href="#a" id="d" x1="16.034887" x2="23.789463" y1="129.96582" y2="137.85184" gradientUnits="userSpaceOnUse"/>
    <linearGradient xlink:href="#b" id="c" x1="22.26428" x2="45.324665" y1="106.27786" y2="132.03882" gradientUnits="userSpaceOnUse"/>
  </defs>
  <path fill="#01b656" fill-rule="evenodd" d="m12.643903 140.83903 11.590244-37.22927L100.8 16.156098l12.6439-2.107317 10.53659 8.780488-.70244 13.697561-76.565854 94.12683-34.068293 10.18537z"/>
  <path fill="url(#c)" fill-rule="evenodd" d="m12.643902 140.83902 11.501892-37.31542 9.220059 3.24714 11.941464 11.23901 1.357416 12.51357-34.020831 10.3157z"/>
  <path fill="#fff" fill-opacity=".39316239" fill-rule="evenodd" d="m112.00571 15.235855 9.97021 9.333809-76.579665 93.762366-11.030865-11.03087 77.64032-92.065305z"/>
  <path fill="none" stroke="#000" stroke-width="4.80000019" d="m10.516902 142.05845 11.590244-37.22926 76.56585-87.453664 12.643904-2.107317 10.53659 8.780488-.70244 13.697561-76.565855 94.126822-34.068293 10.18537z"/>
  <path fill="url(#d)" fill-rule="evenodd" d="m11.153463 141.46122 3.548704-11.69758s3.943005-.65717 6.177375 1.9715c2.234369 2.62867 2.234369 6.17737 2.234369 6.17737l-11.960448 3.54871z"/>
  <path fill="red" fill-opacity=".62820512" fill-rule="evenodd" stroke="#ff0006" stroke-linecap="round" stroke-width="3.6" d="M118.76018 29.530307c23.69485 27.054118 21.13295 68.029567-5.62948 91.468943-26.76243 23.43939-67.66163 20.52855-91.356492-6.52556C-1.9206423 87.419572.53542774 46.437122 27.297858 22.997733 54.06029-.44165241 95.06532 2.4761876 118.76018 29.530307zm-9.78205 8.068936c-18.92444-21.607387-50.66815-25.096435-72.406632-8.566449l71.305012 81.414046c19.25483-19.365727 20.02605-51.24021 1.10162-72.847597zm-9.24749 79.483517L28.919778 36.232915c-16.89355 19.52433-16.76055 49.618513 1.35246 70.299445 18.113012 20.68091 47.884522 24.73086 69.458402 10.5504z"/>
</svg>